<?xml version="1.0" encoding="utf-8"?>
<!-- Generator: Adobe Illustrator 21.0.0, SVG Export Plug-In . SVG Version: 6.00 Build 0)  -->
<svg version="1.1" id="Layer_1" xmlns="http://www.w3.org/2000/svg" xmlns:xlink="http://www.w3.org/1999/xlink" x="0px" y="0px"
	 viewBox="0 0 2000 2000" style="enable-background:new 0 0 2000 2000;" xml:space="preserve">
<path d="M595.7,1180.5c62.9,103.6,162.4,177.1,274.6,211.2c-0.4,39.1-3.1,79.1,17.8,114c12.8,21.3,32,38.1,54.4,48.8
	c-2.1,29.6,14.5,57,43,68.3c3.5,1.4,7.1,2.4,10.9,3.1c-4.1,25.2-2.4,53.6,13.3,73.2c17.6,22.1,42.9,20,68.4,20.6
	c21.8,0.5,47.4,6.4,57.5,28c12.5,26.6-0.5,60.6-12.3,85c-7.8,16.1,16.3,30.3,24.1,14.1c22.2-45.5,37.5-115.2-18.4-143.6
	c-12.7-6.5-26.5-9.5-40.6-10.9c-13.9-1.3-29,2.3-42.6-1.7c-17.3-4.9-22.3-21.4-23-37.2c-0.5-11.3,0.1-19.5,2.2-28.9
	c16.7-4.3,31.9-14.8,41.2-29.9c7.1-11.4,11-26.6,9.5-40.5c29.8-14.4,53.8-39.9,65.1-72.6c9.6-27.7,7.2-59.2,6.8-88.6
	c201.2-60.4,342.4-250.5,344.2-462.4c-1.7-200.6-126.9-382.7-315.4-452.9c-190.4-70.8-412.1-10.5-540.5,146.7
	C507.8,781,490.5,1007.2,595.7,1180.5z M1017.8,1412.7c34.1,0.8,68.6-3.9,101.9-10.8c0.3,8.1,0.5,16.3,0.5,24.5
	c-67.6,0-135.1,0-202.7,0c-6.7,0-13.3,0-20,0c0-8.7,0.2-17.4,0.5-26c3.5,0.4,7.1,0.8,10.6,1.3
	C944.2,1409.5,980.9,1413.2,1017.8,1412.7z M1117.4,1461.5c-1.8,8-4.7,15.5-8.2,22.5c-59.9,0-119.8,0-179.7,0c-7.1,0-14.2,0-21.2,0
	c-4.6-9.3-7.2-19.4-8.8-29.7c66.9,0,133.8,0,200.7,0c6.1,0,12.1,0,18.2,0C1118,1456.7,1117.9,1459.1,1117.4,1461.5z M929.2,1511.9
	c53.1,0,106.1,0,159.1,0h0.1c-17.7,16.5-41.1,26.8-66.6,27.2c-18.1,0-36.2,1.2-53.9-4.1C953.1,1530.6,940.1,1522.4,929.2,1511.9z
	 M1045.6,1573.3c-0.2,0.7-0.5,1.3-0.7,1.9c-0.1,0.1-0.3,0.5-0.6,1.3c-1.5,2.7-3,5.5-4.9,7.9c-0.5,0.4-2.3,2.5-2.5,2.7
	c-1,1-2.1,1.9-3,2.8c-1.3,1.1-1.5,1.2-0.4,0.4c-0.8,0.6-1.5,1.1-2.3,1.6c-1.6,1.1-3.1,2-4.8,2.8c-0.2,0.1-1.9,0.9-2.3,1.1
	c-1.6,0.7-3.2,1.2-4.8,1.7c-1.7,0.5-3.3,0.8-5,1.1c-0.4,0-2.9,0.3-3.4,0.3c-1.8,0.1-3.4,0.1-5.2,0c-0.8,0-1.6-0.1-2.3-0.2
	c-0.2,0-0.5-0.1-1.2-0.2c-3.1-0.8-6.2-1.5-9.1-2.7c-0.5-0.3-3-1.6-3.3-1.8c-1.7-0.9-3.1-2-4.7-2.9c-0.5-0.4-0.7-0.5-0.8-0.5
	c-0.1-0.1-0.3-0.3-0.8-0.8c-1.4-1.3-2.7-2.5-3.9-3.8c-1.9-2.1-2.4-2.6-4.4-6.1c-1-1.6-1.9-3.2-2.6-4.9c1,2.1-1-2.7-1.2-3.2
	c-0.6-2-0.8-3.7-1.2-5.5c10.8,2.5,21.6,4.3,32.7,4.4c14.8,0,29.6-0.2,44-3l0,0C1046.8,1569.7,1046.2,1571.5,1045.6,1573.3z
	 M1096.8,484.3c212,42,365.1,231.3,366.8,446.3c-1.6,190.1-121.6,364.7-301.9,428.5c-30.7,10.9-62.1,17.9-93.6,21.9
	c20.3-134.2,40.5-268.3,60.9-402.5c2.9-19.3,5.9-38.6,8.7-57.9c2.6-17.5-24.2-25.2-26.9-7.4c-20.6,135.9-41.1,271.9-61.7,407.9
	c-2.9,19.3-5.9,38.6-8.7,57.9c-0.3,1.7,0,3.1,0.2,4.6c-8.2,0.6-16.5,0.9-24.7,1c-8.6-0.2-17.1-0.4-25.7-1.4
	c-4.9-0.6-9.8-1.2-14.7-1.8c-15.4-101.5-30.7-203-46-304.5c-2.3-15-4.5-29.9-6.8-44.9c-2.6-17.7-29.6-10.2-26.9,7.4
	c15.9,105.2,31.8,210.3,47.7,315.6c1.2,7.6,2.4,15.4,3.4,23c-10.8-1.3-21.4-2.4-32.1-3.7c-97.5-20.9-188.2-72.9-254.7-151.8
	c-124-146.9-139.9-363.6-40.3-527.8C717.8,533.4,911.4,447.5,1096.8,484.3z M887.9,1056.8c-2.4-13-3.7-26.6-3.3-39.9
	c0.1-3.3,1.3-7.2,1.3-10.5c0-0.9,0.2-1.4,0.4-1.9c8.1-0.9,25.3,8.8,32.5,12.7c16.7,9.1,35.8,18.7,50.7,1c7.5-9,11.3-21.6,13.8-32.8
	c2-8.6,5-20.9,4.5-30.4c2.6,1.2,5.6,2.4,6.3,2.8c12.2,6.3,24.8,14.9,39,15.7c20.8,1.2,29.8-16.3,28.2-34.8
	c-1-11.6-4.2-22.8-7.6-33.9c-0.3-1-0.8-3.2-1.3-5.6c0.6,0.1,1.4,0.3,1.8,0.5c14.5,5.4,36,26.7,51.4,13.3c6.6-5.8,7.4-14.8,8.1-23
	c0.4-5.3-1.1-17.9,1.9-23.7c0.5,0.5,2.1,0.6,4.4,1.8c6,2.9,11.1,7.6,15.9,12.2c6.1,5.9,12.8,13.5,16.9,19.3
	c10.4,14.4,34.7,0.5,24.1-14.1c-12.2-16.9-27.6-35-47.1-43.6c-23.8-10.6-40.1,3.5-42.8,27.1c-0.5,4.5-1.1,9.4-1.4,14.2
	c-3.6-1.7-7.5-3.1-9.9-4.3c-15.9-7.7-45.7-19-52.9,5.9c-3.5,12.1,3.4,25.5,6.7,36.9c1.5,5.2,2.9,10.6,3.6,16c0.3,2,0.3,3.9,0.4,6
	c0,0.5,0,0.9-0.1,1.3c-2.4-1.1-7.6-2-9.3-2.6c-7.2-3.2-13.9-7.6-21.1-11.1c-9.5-4.5-21.1-9.1-31.1-3.5
	c-17.3,9.6-12.7,41.1-17.5,57.3c-0.9,2.9-3.3,14.2-6.3,15.3c-0.7,0.3-1.3-0.6-3.1-0.8c-4.6-0.5-11-5.9-15-8
	c-6.1-3.2-12.4-6.3-18.9-8.7c-12.8-4.9-30.8-10.7-42.6-0.7c-7.8,6.7-10.3,17.2-11.3,27c-2,18.1,0.5,37,3.8,54.7
	C864.3,1081.9,891.2,1074.5,887.9,1056.8z M1085.3,893.4C1085.3,896.3,1083.9,894.3,1085.3,893.4L1085.3,893.4z M886.7,1003.9
	C887.1,1003.4,887.3,1003.5,886.7,1003.9L886.7,1003.9z M1041.1,403.4c0-67,0-134.1,0-201c0-9.5,0-19,0-28.4c0-17.9-27.9-18-27.9,0
	c0,67,0,134.1,0,201c0,9.5,0,19,0,28.4C1013.2,421.3,1041.1,421.4,1041.1,403.4z M1483.8,695.9c56-36.5,112-73,168-109.5
	c8.1-5.3,16.2-10.6,24.3-15.8c15-9.8,1-33.9-14.1-24.1c-56,36.5-112,73-168,109.5c-8.1,5.3-16.2,10.6-24.3,15.8
	C1454.8,681.6,1468.7,705.8,1483.8,695.9z M1662,1314.9c-57.5-34.5-114.9-68.9-172.3-103.4c-8.1-4.9-16.3-9.8-24.4-14.6
	c-15.5-9.2-29.5,14.9-14.1,24.1c57.5,34.5,114.9,68.9,172.3,103.4c8.1,4.9,16.3,9.8,24.4,14.6
	C1663.3,1348.3,1677.4,1324.1,1662,1314.9z M1276.2,480.7c7,4.1,14.7,1.2,19.1-5c27-38.1,54.1-76.1,81.1-114.2
	c3.9-5.5,7.7-11,11.7-16.4c4.3-6.2,1.1-15.5-5-19.1c-7-4.1-14.7-1.2-19.1,5c-27,38.1-54.1,76.1-81.1,114.2
	c-3.9,5.5-7.7,11-11.7,16.4C1266.8,467.8,1270.1,477.1,1276.2,480.7z M1703.3,932.9c-46.6,2.6-93.2,5.2-139.8,7.7
	c-6.7,0.4-13.4,0.8-20.2,1.1c-17.8,1-17.9,28.9,0,27.9c46.6-2.6,93.2-5.2,139.8-7.7c6.7-0.4,13.4-0.8,20.2-1.2
	C1721.1,959.8,1721.3,931.9,1703.3,932.9z M1283,1384c-8.6-15.8-32.7-1.7-24.1,14.1c22.4,40.9,44.9,82,67.4,122.9
	c3.2,5.9,6.4,11.7,9.6,17.5c8.6,15.8,32.7,1.7,24.1-14.1c-22.4-40.9-44.9-82-67.4-122.9C1289.3,1395.7,1286.2,1389.9,1283,1384z
	 M351.1,566.4c56,36.5,112,73,167.9,109.5c8.1,5.3,16.2,10.6,24.3,15.8c15.1,9.8,29.1-14.3,14.1-24.1c-56-36.4-112-73-168-109.4
	c-8.1-5.3-16.2-10.6-24.3-15.8C350,532.5,336,556.6,351.1,566.4z M379.2,1334.8c57.5-34.5,115-68.9,172.3-103.4
	c8.1-4.9,16.3-9.8,24.4-14.6c15.4-9.2,1.4-33.4-14.1-24.1c-57.5,34.5-115,68.9-172.3,103.4c-8.1,4.9-16.3,9.8-24.4,14.6
	C349.7,1320,363.8,1344.1,379.2,1334.8z M720.2,455.2c3.9,5.5,7.7,11,11.7,16.4c4.4,6.2,12.1,9,19.1,5c6.1-3.5,9.4-12.9,5-19.1
	c-27-38.1-54.1-76.1-81.1-114.2c-3.9-5.5-7.7-11-11.7-16.4c-4.4-6.2-12.1-9-19.1-5c-6.1,3.5-9.4,12.9-5,19.1
	C666.1,379,693.1,417.1,720.2,455.2z M483.8,965.5c17.9,1,17.9-26.9,0-27.9c-46.6-2.6-93.2-5.2-139.8-7.7
	c-6.7-0.4-13.4-0.8-20.1-1.2c-17.9-1-17.9,26.9,0,27.9c46.6,2.6,93.2,5.2,139.8,7.7C470.4,964.8,477.1,965.1,483.8,965.5z
	 M744.2,1379.8c-22.4,40.9-44.9,82-67.4,122.9c-3.2,5.9-6.4,11.7-9.6,17.5c-8.6,15.8,15.5,29.9,24.1,14.1
	c22.4-40.9,44.9-82,67.4-122.9c3.2-5.9,6.4-11.7,9.6-17.5C776.9,1378.1,752.8,1364,744.2,1379.8z"/>
</svg>
