<svg xmlns="http://www.w3.org/2000/svg" viewBox="0 0 370 427"><g fill="none" stroke-width="2"><path stroke="#5e7848" d="M246.56 188.56q3.12-1.85 4.67-2.56a.9.87-12.7 0 0 .52-.8v-74.48a1.47 1.47 0 0 0-.75-1.28l-15.56-8.69a1.74 1.74 0 0 0-2.59 1.52l-.09 38.62a.52.52 0 0 1-.79.45l-6.49-3.81a3 2.99-44.7 0 0-3.01-.01l-25.5 14.77a1.45 1.44-15.2 0 0-.72 1.25v31.49q0 .64.55.95l25.79 14.95a1.54 1.51 54.1 0 0 1.06.18c3.09-.59 5.48-2.74 7.5-3.83q7.8-4.2 15.41-8.72" vector-effect="non-scaling-stroke"/><path stroke="#c4deae" d="M187.74 152.09a.53.53 0 0 0-.28-.47l-29.07-15.77a.53.53 0 0 0-.52.01l-27.36 15.8a.53.53 0 0 0-.26.46v32.39a.53.53 0 0 0 .26.45l28.24 16.71a.53.53 0 0 0 .54-.01l27.35-16.7a.53.53 0 0 0 .26-.44l.84-32.43" vector-effect="non-scaling-stroke"/><path stroke="#5e7848" d="m120.84 151.56-25.86-15a3.32 3.29-44.7 0 0-3.3 0q-12.16 6.98-24.52 14.06c-2.45 1.41-1.92 2.87-1.92 5.14q.04 18.74-.04 37.06a1.41 1.41 0 0 0 2.1 1.23l15.22-8.71A2.92 2.92 0 0 0 84 182.8v-18.66a2.05 2.04 75 0 1 1.02-1.77l7.76-4.49a1.12 1.1-44.6 0 1 1.11 0l8.2 4.69a1.04 1.02 15.3 0 1 .52.89l.11 20.28a1.32 1.3 15.2 0 0 .66 1.13l15.95 9.21a1.45 1.44 15 0 0 2.17-1.25V152.7a1.32 1.31 15 0 0-.66-1.14M258.71 152.12q-.37 1.32-.36 2.38l.15 28.3a2.41 2.39-75.6 0 0 1.21 2.07l24.14 13.77a3.54 3.51-44.3 0 0 3.43.03q7.21-3.9 14.35-8.08.79-.45.92-.78a1.31 1.3-64.7 0 0-.56-1.59l-24.7-14.25a2.57 2.57 0 0 1-1.29-2.23v-7.61a2.6 2.6 0 0 1 1.31-2.26l7.31-4.2a2.11 2.11 0 0 1 2.11.02l7.5 4.43q.43.26.46.77l.37 7.61a1.34 1.34 0 0 0 2 1.1l15.36-8.83a1.02 1.02 0 0 0 .49-.71q.74-4.41.22-8.89-.16-1.39-2.05-2.53-11.09-6.7-22.42-13.05c-3.42-1.91-4.89-.42-7.77 1.2q-10.87 6.11-21.56 12.55-.49.29-.62.78" vector-effect="non-scaling-stroke"/><path stroke="#c4deae" d="M281.25 164.87c-1.76 1.55-1.46 3.41-1.18 5.51a1.21 1.2 15.6 0 0 .46.81c1.94 1.5 4.05 2.98 6.56 1.87q4.12-1.83 3.3-6.78-.08-.48-.44-.82-4.53-4.26-8.7-.59M165.59 250.34l-8.21-.09a.86.86 0 0 0-.87.86q-.04 30.62.01 61.48c.04 20.64-22.49 3.76-29.15-.29a1.82 1.81-74.3 0 1-.87-1.55v-65.27a.77.77 0 0 1 .39-.67l56.34-32.61a2.05 2.05 0 0 1 2.06 0l55.8 32.25a1.83 1.8-75.3 0 1 .91 1.58v65a1.49 1.49 0 0 1-.74 1.29l-55.75 32.28a2.39 2.38-44.7 0 1-2.41-.01L168.53 336q-.44-.26-.85.03-4.04 2.87-8.87 4.03a.73.73 0 0 0-.21 1.34q10.77 6.37 20.46 12.05c3.97 2.32 8.07 1.34 12.17-1.01q25.85-14.82 51.62-29.77c4.92-2.86 8.88-5.88 8.89-11.42q.04-31.44-.01-62.89c-.01-4.78-1.05-9.54-5.01-11.86q-25.16-14.68-50.45-29.19-6.58-3.78-7.12-4c-6.95-2.79-10.91.61-18.42 4.91q-23.98 13.75-47.85 27.71c-4.58 2.68-6.68 7.08-6.61 12.49.21 18.48-.22 37.29.15 59.09.1 5.86 1.26 10.23 6.02 13.27 9.33 5.97 26.45 17.61 38.28 8.58q5.68-4.34 5.71-12.63.14-32.92.05-65.5-.01-.88-.89-.89" vector-effect="non-scaling-stroke"/><path stroke="#c4deae" d="M172.26 289.44c-1.02 21.06 26.86 22.72 40.31 19.62 7.1-1.63 13.29-5.18 15.78-12.24q1.79-5.1.41-10.09c-2.25-8.14-10.53-10.7-17.92-11.88q-9.93-1.59-19.87-3.25-3.08-.51-5.55-2.78a1.46 1.42-73 0 1-.45-.87c-1.67-11.48 13.86-10.26 20.84-9.56q9.24.92 11.08 9.8a1.64 1.64 0 0 0 1.61 1.31h7.01a1.49 1.48 87.8 0 0 1.48-1.6c-.96-12.54-9.22-17.54-20.97-18.96-12.05-1.46-31.9.67-31.88 17.42q.02 12.05 12.94 15.14c9.95 2.39 18.85 1.35 27.75 4.9 5.02 2 4.55 8.07 1.19 11.08-4.85 4.36-20.07 3.42-25.29 2.07q-7.66-1.98-8.48-9.93a1.53 1.53 0 0 0-1.52-1.37h-7.22a1.25 1.25 0 0 0-1.25 1.19" vector-effect="non-scaling-stroke"/><path stroke="#5e7848" d="M232.94 164.25a.32.32 0 0 0-.16-.28l-8.7-5.09a.32.32 0 0 0-.32.01l-8.6 5.06a.32.32 0 0 0-.16.27l-.01 10.02a.32.32 0 0 0 .16.27l8.62 4.99a.32.32 0 0 0 .32 0l8.55-5.03a.32.32 0 0 0 .16-.27l.14-9.95" vector-effect="non-scaling-stroke"/><path stroke="#c4deae" d="M182.6 155.19a.85.85 0 0 0-.45-.77l-23.5-12.81a.85.85 0 0 0-.83.01l-22.15 12.81a.85.85 0 0 0-.42.74v26.32a.85.85 0 0 0 .42.73l22.87 13.53a.85.85 0 0 0 .88-.01l22.11-13.51a.85.85 0 0 0 .41-.7l.66-26.34" vector-effect="non-scaling-stroke"/></g><path fill="#89bd5d" d="M369 107.7v211.61a.77.77 0 0 1-.38.66l-183.23 105.8a.77.77 0 0 1-.78 0L1.38 319.96a.77.77 0 0 1-.38-.66V107.7a.77.77 0 0 1 .38-.66L184.61 1.23a.77.77 0 0 1 .78 0l183.23 105.81a.77.77 0 0 1 .38.66Zm-122.44 80.86q3.12-1.85 4.67-2.56a.9.87-12.7 0 0 .52-.8v-74.48a1.47 1.47 0 0 0-.75-1.28l-15.56-8.69a1.74 1.74 0 0 0-2.59 1.52l-.09 38.62a.52.52 0 0 1-.79.45l-6.49-3.81a3 2.99-44.7 0 0-3.01-.01l-25.5 14.77a1.45 1.44-15.2 0 0-.72 1.25v31.49q0 .64.55.95l25.79 14.95a1.54 1.51 54.1 0 0 1.06.18c3.09-.59 5.48-2.74 7.5-3.83q7.8-4.2 15.41-8.72Zm-58.82-36.47a.53.53 0 0 0-.28-.47l-29.07-15.77a.53.53 0 0 0-.52.01l-27.36 15.8a.53.53 0 0 0-.26.46v32.39a.53.53 0 0 0 .26.45l28.24 16.71a.53.53 0 0 0 .54-.01l27.35-16.7a.53.53 0 0 0 .26-.44l.84-32.43Zm-66.9-.53-25.86-15a3.32 3.29-44.7 0 0-3.3 0q-12.16 6.98-24.52 14.06c-2.45 1.41-1.92 2.87-1.92 5.14q.04 18.74-.04 37.06a1.41 1.41 0 0 0 2.1 1.23l15.22-8.71A2.92 2.92 0 0 0 84 182.8v-18.66a2.05 2.04 75 0 1 1.02-1.77l7.76-4.49a1.12 1.1-44.6 0 1 1.11 0l8.2 4.69a1.04 1.02 15.3 0 1 .52.89l.11 20.28a1.32 1.3 15.2 0 0 .66 1.13l15.95 9.21a1.45 1.44 15 0 0 2.17-1.25V152.7a1.32 1.31 15 0 0-.66-1.14Zm137.87.56q-.37 1.32-.36 2.38l.15 28.3a2.41 2.39-75.6 0 0 1.21 2.07l24.14 13.77a3.54 3.51-44.3 0 0 3.43.03q7.21-3.9 14.35-8.08.79-.45.92-.78a1.31 1.3-64.7 0 0-.56-1.59l-24.7-14.25a2.57 2.57 0 0 1-1.29-2.23v-7.61a2.6 2.6 0 0 1 1.31-2.26l7.31-4.2a2.11 2.11 0 0 1 2.11.02l7.5 4.43q.43.26.46.77l.37 7.61a1.34 1.34 0 0 0 2 1.1l15.36-8.83a1.02 1.02 0 0 0 .49-.71q.74-4.41.22-8.89-.16-1.39-2.05-2.53-11.09-6.7-22.42-13.05c-3.42-1.91-4.89-.42-7.77 1.2q-10.87 6.11-21.56 12.55-.49.29-.62.78Zm22.54 12.75c-1.76 1.55-1.46 3.41-1.18 5.51a1.21 1.2 15.6 0 0 .46.81c1.94 1.5 4.05 2.98 6.56 1.87q4.12-1.83 3.3-6.78-.08-.48-.44-.82-4.53-4.26-8.7-.59Zm-115.66 85.47-8.21-.09a.86.86 0 0 0-.87.86q-.04 30.62.01 61.48c.04 20.64-22.49 3.76-29.15-.29a1.82 1.81-74.3 0 1-.87-1.55v-65.27a.77.77 0 0 1 .39-.67l56.34-32.61a2.05 2.05 0 0 1 2.06 0l55.8 32.25a1.83 1.8-75.3 0 1 .91 1.58v65a1.49 1.49 0 0 1-.74 1.29l-55.75 32.28a2.39 2.38-44.7 0 1-2.41-.01L168.53 336q-.44-.26-.85.03-4.04 2.87-8.87 4.03a.73.73 0 0 0-.21 1.34q10.77 6.37 20.46 12.05c3.97 2.32 8.07 1.34 12.17-1.01q25.85-14.82 51.62-29.77c4.92-2.86 8.88-5.88 8.89-11.42q.04-31.44-.01-62.89c-.01-4.78-1.05-9.54-5.01-11.86q-25.16-14.68-50.45-29.19-6.58-3.78-7.12-4c-6.95-2.79-10.91.61-18.42 4.91q-23.98 13.75-47.85 27.71c-4.58 2.68-6.68 7.08-6.61 12.49.21 18.48-.22 37.29.15 59.09.1 5.86 1.26 10.23 6.02 13.27 9.33 5.97 26.45 17.61 38.28 8.58q5.68-4.34 5.71-12.63.14-32.92.05-65.5-.01-.88-.89-.89Zm6.67 39.1c-1.02 21.06 26.86 22.72 40.31 19.62 7.1-1.63 13.29-5.18 15.78-12.24q1.79-5.1.41-10.09c-2.25-8.14-10.53-10.7-17.92-11.88q-9.93-1.59-19.87-3.25-3.08-.51-5.55-2.78a1.46 1.42-73 0 1-.45-.87c-1.67-11.48 13.86-10.26 20.84-9.56q9.24.92 11.08 9.8a1.64 1.64 0 0 0 1.61 1.31h7.01a1.49 1.48 87.8 0 0 1.48-1.6c-.96-12.54-9.22-17.54-20.97-18.96-12.05-1.46-31.9.67-31.88 17.42q.02 12.05 12.94 15.14c9.95 2.39 18.85 1.35 27.75 4.9 5.02 2 4.55 8.07 1.19 11.08-4.85 4.36-20.07 3.42-25.29 2.07q-7.66-1.98-8.48-9.93a1.53 1.53 0 0 0-1.52-1.37h-7.22a1.25 1.25 0 0 0-1.25 1.19Z"/><path fill="#333" d="M246.56 188.56q-7.61 4.52-15.41 8.72c-2.02 1.09-4.41 3.24-7.5 3.83a1.54 1.51 54.1 0 1-1.06-.18l-25.79-14.95q-.55-.31-.55-.95v-31.49a1.45 1.44-15.2 0 1 .72-1.25l25.5-14.77a3 2.99-44.7 0 1 3.01.01l6.49 3.81a.52.52 0 0 0 .79-.45l.09-38.62a1.74 1.74 0 0 1 2.59-1.52l15.56 8.69a1.47 1.47 0 0 1 .75 1.28v74.48a.9.87-12.7 0 1-.52.8q-1.55.71-4.67 2.56Zm-13.62-24.31a.32.32 0 0 0-.16-.28l-8.7-5.09a.32.32 0 0 0-.32.01l-8.6 5.06a.32.32 0 0 0-.16.27l-.01 10.02a.32.32 0 0 0 .16.27l8.62 4.99a.32.32 0 0 0 .32 0l8.55-5.03a.32.32 0 0 0 .16-.27l.14-9.95Z"/><path fill="#fff" d="m187.74 152.09-.84 32.43a.53.53 0 0 1-.26.44l-27.35 16.7a.53.53 0 0 1-.54.01l-28.24-16.71a.53.53 0 0 1-.26-.45v-32.39a.53.53 0 0 1 .26-.46l27.36-15.8a.53.53 0 0 1 .52-.01l29.07 15.77a.53.53 0 0 1 .28.47Zm-5.14 3.1a.85.85 0 0 0-.45-.77l-23.5-12.81a.85.85 0 0 0-.83.01l-22.15 12.81a.85.85 0 0 0-.42.74v26.32a.85.85 0 0 0 .42.73l22.87 13.53a.85.85 0 0 0 .88-.01l22.11-13.51a.85.85 0 0 0 .41-.7l.66-26.34Z"/><path fill="#333" d="M120.84 151.56a1.32 1.31 15 0 1 .66 1.14v40.13a1.45 1.44 15 0 1-2.17 1.25l-15.95-9.21a1.32 1.3 15.2 0 1-.66-1.13l-.11-20.28a1.04 1.02 15.3 0 0-.52-.89l-8.2-4.69a1.12 1.1-44.6 0 0-1.11 0l-7.76 4.49a2.05 2.04 75 0 0-1.02 1.77v18.66a2.92 2.92 0 0 1-1.48 2.54l-15.22 8.71a1.41 1.41 0 0 1-2.1-1.23q.08-18.32.04-37.06c0-2.27-.53-3.73 1.92-5.14q12.36-7.08 24.52-14.06a3.32 3.29-44.7 0 1 3.3 0l25.86 15ZM258.71 152.12q.13-.49.62-.78 10.69-6.44 21.56-12.55c2.88-1.62 4.35-3.11 7.77-1.2q11.33 6.35 22.42 13.05 1.89 1.14 2.05 2.53.52 4.48-.22 8.89a1.02 1.02 0 0 1-.49.71l-15.36 8.83a1.34 1.34 0 0 1-2-1.1l-.37-7.61q-.03-.51-.46-.77l-7.5-4.43a2.11 2.11 0 0 0-2.11-.02l-7.31 4.2a2.6 2.6 0 0 0-1.31 2.26v7.61a2.57 2.57 0 0 0 1.29 2.23l24.7 14.25a1.31 1.3-64.7 0 1 .56 1.59q-.13.33-.92.78-7.14 4.18-14.35 8.08a3.54 3.51-44.3 0 1-3.43-.03l-24.14-13.77a2.41 2.39-75.6 0 1-1.21-2.07l-.15-28.3q-.01-1.06.36-2.38Z"/><path fill="#89bd5d" d="m182.6 155.19-.66 26.34a.85.85 0 0 1-.41.7l-22.11 13.51a.85.85 0 0 1-.88.01l-22.87-13.53a.85.85 0 0 1-.42-.73v-26.32a.85.85 0 0 1 .42-.74l22.15-12.81a.85.85 0 0 1 .83-.01l23.5 12.81a.85.85 0 0 1 .45.77ZM232.94 164.25l-.14 9.95a.32.32 0 0 1-.16.27l-8.55 5.03a.32.32 0 0 1-.32 0l-8.62-4.99a.32.32 0 0 1-.16-.27l.01-10.02a.32.32 0 0 1 .16-.27l8.6-5.06a.32.32 0 0 1 .32-.01l8.7 5.09a.32.32 0 0 1 .16.28Z"/><path fill="#fff" d="M281.25 164.87q4.17-3.67 8.7.59.36.34.44.82.82 4.95-3.3 6.78c-2.51 1.11-4.62-.37-6.56-1.87a1.21 1.2 15.6 0 1-.46-.81c-.28-2.1-.58-3.96 1.18-5.51ZM165.59 250.34q.88.01.89.89.09 32.58-.05 65.5-.03 8.29-5.71 12.63c-11.83 9.03-28.95-2.61-38.28-8.58-4.76-3.04-5.92-7.41-6.02-13.27-.37-21.8.06-40.61-.15-59.09-.07-5.41 2.03-9.81 6.61-12.49q23.87-13.96 47.85-27.71c7.51-4.3 11.47-7.7 18.42-4.91q.54.22 7.12 4 25.29 14.51 50.45 29.19c3.96 2.32 5 7.08 5.01 11.86q.05 31.45.01 62.89c-.01 5.54-3.97 8.56-8.89 11.42q-25.77 14.95-51.62 29.77c-4.1 2.35-8.2 3.33-12.17 1.01q-9.69-5.68-20.46-12.05a.73.73 0 0 1 .21-1.34q4.83-1.16 8.87-4.03.41-.29.85-.03l14.57 8.59a2.39 2.38-44.7 0 0 2.41.01l55.75-32.28a1.49 1.49 0 0 0 .74-1.29v-65a1.83 1.8-75.3 0 0-.91-1.58l-55.8-32.25a2.05 2.05 0 0 0-2.06 0l-56.34 32.61a.77.77 0 0 0-.39.67v65.27a1.82 1.81-74.3 0 0 .87 1.55c6.66 4.05 29.19 20.93 29.15.29q-.05-30.86-.01-61.48a.86.86 0 0 1 .87-.86l8.21.09Z"/><path fill="#fff" d="M212.57 309.06c-13.45 3.1-41.33 1.44-40.31-19.62a1.25 1.25 0 0 1 1.25-1.19h7.22a1.53 1.53 0 0 1 1.52 1.37q.82 7.95 8.48 9.93c5.22 1.35 20.44 2.29 25.29-2.07 3.36-3.01 3.83-9.08-1.19-11.08-8.9-3.55-17.8-2.51-27.75-4.9q-12.92-3.09-12.94-15.14c-.02-16.75 19.83-18.88 31.88-17.42 11.75 1.42 20.01 6.42 20.97 18.96a1.49 1.48 87.8 0 1-1.48 1.6h-7.01a1.64 1.64 0 0 1-1.61-1.31q-1.84-8.88-11.08-9.8c-6.98-.7-22.51-1.92-20.84 9.56a1.46 1.42-73 0 0 .45.87q2.47 2.27 5.55 2.78 9.94 1.66 19.87 3.25c7.39 1.18 15.67 3.74 17.92 11.88q1.38 4.99-.41 10.09c-2.49 7.06-8.68 10.61-15.78 12.24Z"/></svg>